<svg xmlns="http://www.w3.org/2000/svg" width="450" height="258.898" viewBox="0 0 450 258.898">
  <title>FM2019-logo-blue</title>
  <g>
    <rect x="3.633" y="14.315" width="414.578" height="118.628" transform="translate(5.65 -14.534) rotate(4)" fill="#00afcb"/>
    <path d="M57.627,30.122l32.6,1.7L89.165,52.244,56.913,50.557l-.23,6.587,27.2,5.258L80.006,82.475,55.962,77.827l-.686,19.582L34.843,96.7,37.2,29.232l10.036.35v0l.291.015,10.106.353ZM150.9,39.865,148.654,38.3l-6.374-4.455-3.49,4.995-12.49.682.265-2.9L106.2,34.761l-5.761,63.006,20.363,1.862L124.418,60.1l18.3-1,12.269,8.581,11.714-16.756Zm76.285,4.516-1.36,7.934,1.119,53.588-9.1.189,0,.041-46.247,1.89-.206-5.077-5.665-.4,4.278-61.188,5.507.385,1.034-6.03Zm-21.1,41.771-.515-24.726L189.3,58.641l-1.977,28.277ZM284.474,72.5,259.136,38.945,247.874,47.45l-2.22,1.674-2.833,2.141,2.455,3.251L241.5,108.492l20.4,1.426,2.137-30.557L282.7,104.084l-.415,7.4,6.27.355,3.172.178,10.974.616.521-9.3.315-5.586,2.749-48.915-20.416-1.149Zm79.469-19.9L364,49.425l-20.429-.814-.015,2.03-25.2-2.423L316.4,68.57,342.745,71.1,341,115.116l20.428.813,1.7-42.868L388.438,75.5,390.4,55.143Z"/>
    <rect x="28.25" y="137.676" width="420.756" height="117.562" transform="translate(-3.392 4.195) rotate(-1)"/>
    <path d="M140.07,180.693l4.753,47.1-20.344,2.052-3.017-29.887-5.933,6.143.876.966-14.471,13.116-1.082,1.117L86.144,207.1l1.391-1.441-6.972-7.692L78.414,230.65l-20.4-1.341,4.04-61.418L77.6,168.914l4.5.294.361.025-.022.348,19.336,21.338,17.006-17.609-.476-4.7,5.56-.562,4.613-.464,10.171-1.026,1.214,12.02Zm77.042-12.632.4,59.422-20.446.137-.125-18.419-16.433.287,1.856,19.631-20.357,1.922-6.27-66.349,9.618-.909,0-.029,1.3-.094,9.439-.891.019.2,35.513-2.581.559,7.7ZM196.8,188.754l-.047-6.781-18.723,1.362.543,5.737Zm115.965,36.139,20.4,1.341,4.038-61.414-20.4-1.341Zm24.3-70.421L336.8,139.14l-20.443.356.268,15.332Zm-63.746,42.277-16.975-23.1.327-10.85-8.489-.256-4.508-.135-7.532-.227-.178,5.893-5.977,4.393,5.615,7.641-1.418,47.122,20.529.618.629-20.882,17.847,24.284,5.384-3.956h15.285V162.139H273.322Zm143.762,28.685-20.519.892-.884-20.341-19.951.815-.613,21.041-20.53-.6,1.957-67.174,8.849.258v-4.916h45.681v5l3.177-.138Zm-22.3-39.968-.414-9.517H376.629l-.3,10.27Z" fill="#fff"/>
  </g>
</svg>
